<mxfile host="Electron" modified="2023-08-07T14:03:04.077Z" agent="Mozilla/5.0 (Windows NT 10.0; Win64; x64) AppleWebKit/537.36 (KHTML, like Gecko) draw.io/21.6.5 Chrome/114.0.5735.243 Electron/25.3.1 Safari/537.36" etag="8zdoPylE5_gQFjkACb5w" version="21.6.5" type="device">
  <diagram name="Page-1" id="s87R4rwoThfk0IRUvo51">
    <mxGraphModel dx="880" dy="545" grid="1" gridSize="10" guides="1" tooltips="1" connect="1" arrows="1" fold="1" page="1" pageScale="1" pageWidth="1169" pageHeight="827" math="0" shadow="0">
      <root>
        <mxCell id="0" />
        <mxCell id="1" parent="0" />
        <mxCell id="1DYKB0hQpVbcVL71ie1m-1" value="" style="fontStyle=1;align=center;verticalAlign=top;childLayout=stackLayout;horizontal=1;horizontalStack=0;resizeParent=1;resizeParentMax=0;resizeLast=0;marginBottom=0;" vertex="1" parent="1">
          <mxGeometry x="40" y="40" width="140" height="246" as="geometry" />
        </mxCell>
        <mxCell id="1DYKB0hQpVbcVL71ie1m-2" value="«component»&lt;br&gt;&lt;b&gt;Order&lt;/b&gt;" style="html=1;align=center;spacingLeft=4;verticalAlign=top;strokeColor=none;fillColor=none;whiteSpace=wrap;" vertex="1" parent="1DYKB0hQpVbcVL71ie1m-1">
          <mxGeometry width="140" height="40" as="geometry" />
        </mxCell>
        <mxCell id="1DYKB0hQpVbcVL71ie1m-3" value="" style="shape=module;jettyWidth=10;jettyHeight=4;" vertex="1" parent="1DYKB0hQpVbcVL71ie1m-2">
          <mxGeometry x="1" width="16" height="20" relative="1" as="geometry">
            <mxPoint x="-25" y="9" as="offset" />
          </mxGeometry>
        </mxCell>
        <mxCell id="1DYKB0hQpVbcVL71ie1m-4" value="" style="line;strokeWidth=1;fillColor=none;align=left;verticalAlign=middle;spacingTop=-1;spacingLeft=3;spacingRight=3;rotatable=0;labelPosition=right;points=[];portConstraint=eastwest;" vertex="1" parent="1DYKB0hQpVbcVL71ie1m-1">
          <mxGeometry y="40" width="140" height="8" as="geometry" />
        </mxCell>
        <mxCell id="1DYKB0hQpVbcVL71ie1m-5" value="provided interfaces" style="html=1;align=center;spacingLeft=4;verticalAlign=top;strokeColor=none;fillColor=none;whiteSpace=wrap;" vertex="1" parent="1DYKB0hQpVbcVL71ie1m-1">
          <mxGeometry y="48" width="140" height="25" as="geometry" />
        </mxCell>
        <mxCell id="1DYKB0hQpVbcVL71ie1m-6" value="ItemAllocation" style="html=1;align=left;spacingLeft=4;verticalAlign=top;strokeColor=none;fillColor=none;whiteSpace=wrap;" vertex="1" parent="1DYKB0hQpVbcVL71ie1m-1">
          <mxGeometry y="73" width="140" height="25" as="geometry" />
        </mxCell>
        <mxCell id="1DYKB0hQpVbcVL71ie1m-10" value="Tracking" style="html=1;align=left;spacingLeft=4;verticalAlign=top;strokeColor=none;fillColor=none;whiteSpace=wrap;" vertex="1" parent="1DYKB0hQpVbcVL71ie1m-1">
          <mxGeometry y="98" width="140" height="25" as="geometry" />
        </mxCell>
        <mxCell id="1DYKB0hQpVbcVL71ie1m-7" value="" style="line;strokeWidth=1;fillColor=none;align=left;verticalAlign=middle;spacingTop=-1;spacingLeft=3;spacingRight=3;rotatable=0;labelPosition=right;points=[];portConstraint=eastwest;" vertex="1" parent="1DYKB0hQpVbcVL71ie1m-1">
          <mxGeometry y="123" width="140" height="8" as="geometry" />
        </mxCell>
        <mxCell id="1DYKB0hQpVbcVL71ie1m-8" value="required interfaces" style="html=1;align=center;spacingLeft=4;verticalAlign=top;strokeColor=none;fillColor=none;whiteSpace=wrap;" vertex="1" parent="1DYKB0hQpVbcVL71ie1m-1">
          <mxGeometry y="131" width="140" height="25" as="geometry" />
        </mxCell>
        <mxCell id="1DYKB0hQpVbcVL71ie1m-9" value="Person" style="html=1;align=left;spacingLeft=4;verticalAlign=top;strokeColor=none;fillColor=none;whiteSpace=wrap;" vertex="1" parent="1DYKB0hQpVbcVL71ie1m-1">
          <mxGeometry y="156" width="140" height="30" as="geometry" />
        </mxCell>
        <mxCell id="1DYKB0hQpVbcVL71ie1m-11" value="Invoice" style="html=1;align=left;spacingLeft=4;verticalAlign=top;strokeColor=none;fillColor=none;whiteSpace=wrap;" vertex="1" parent="1DYKB0hQpVbcVL71ie1m-1">
          <mxGeometry y="186" width="140" height="30" as="geometry" />
        </mxCell>
        <mxCell id="1DYKB0hQpVbcVL71ie1m-12" value="OrderableItem" style="html=1;align=left;spacingLeft=4;verticalAlign=top;strokeColor=none;fillColor=none;whiteSpace=wrap;" vertex="1" parent="1DYKB0hQpVbcVL71ie1m-1">
          <mxGeometry y="216" width="140" height="30" as="geometry" />
        </mxCell>
        <mxCell id="1DYKB0hQpVbcVL71ie1m-13" value="&lt;b&gt;Figure 11.41 Black box notation showing a listing of provided and required interfaces&lt;/b&gt;" style="text;html=1;align=left;verticalAlign=middle;resizable=0;points=[];autosize=1;strokeColor=none;fillColor=none;" vertex="1" parent="1">
          <mxGeometry x="40" y="286" width="510" height="30" as="geometry" />
        </mxCell>
      </root>
    </mxGraphModel>
  </diagram>
</mxfile>
